
<svg width="56" height="56" viewBox="0 0 34 34" fill="none" xmlns="http://www.w3.org/2000/svg">
<mask id="path-1-inside-1_211_2338" fill="white">
<path d="M19.8646 16.8131C19.697 16.8131 19.5414 16.767 19.4031 16.6929V16.6948C19.4031 16.9585 19.3006 17.2062 19.1147 17.3917C18.9287 17.5776 18.6812 17.6801 18.4179 17.6801C18.2478 17.6801 18.0902 17.6329 17.9505 17.5568C17.9364 17.798 17.8399 18.0235 17.6679 18.1957C17.4819 18.3817 17.2345 18.4842 16.9709 18.4842C16.4473 18.4842 16.022 18.0726 15.9914 17.5566C15.8294 17.6442 15.6462 17.6901 15.4573 17.678C14.9421 17.6442 14.5387 17.1991 14.5387 16.6645V12.2329L14.0341 13.1071C13.8419 13.4415 13.4821 13.6491 13.0948 13.6491C12.906 13.6491 12.7195 13.5996 12.5544 13.5049C12.3488 13.3857 12.2017 13.1943 12.1405 12.9654C12.079 12.7363 12.1108 12.4967 12.2297 12.2914C12.2299 12.2914 13.8808 9.43248 13.9815 9.25687C13.9935 9.23046 14.0276 9.15388 14.0566 9.08861C14.0843 9.02629 14.1081 8.96234 14.1309 8.89805C14.6287 7.49249 15.8615 6.61939 17.3483 6.61939C19.2789 6.61939 20.8497 8.3226 20.8497 10.4162L20.8498 15.8277C20.8498 16.091 20.7475 16.3385 20.5617 16.5246C20.3757 16.7106 20.1283 16.8131 19.8646 16.8131L19.8646 16.8131ZM17.3483 7.14293C16.0708 7.14293 15.0525 7.86452 14.6244 9.07314C14.597 9.14989 14.5684 9.22664 14.5351 9.30142C14.4386 9.51806 14.4386 9.51805 14.4113 9.54921L14.4077 9.54609C14.2729 9.80045 13.8725 10.494 12.683 12.5534C12.6341 12.6379 12.6212 12.7359 12.6461 12.8297C12.6714 12.9235 12.7319 13.0026 12.8157 13.0509C13.0758 13.2003 13.432 13.1039 13.5802 12.8456L14.5739 11.1253C14.6332 11.0228 14.7533 10.9725 14.8684 11.0036C14.9829 11.0343 15.0624 11.1381 15.0624 11.2565V16.6647C15.0624 16.9198 15.2549 17.1401 15.4916 17.1556C15.628 17.1629 15.7553 17.1171 15.8509 17.0217C15.9378 16.9347 15.9857 16.819 15.9857 16.6951V13.1582C15.9857 13.0135 16.1029 12.8963 16.2476 12.8963C16.3922 12.8963 16.5095 13.0134 16.5095 13.1582L16.5093 17.4991C16.5093 17.7536 16.7164 17.9607 16.9709 17.9607C17.0946 17.9607 17.2107 17.9129 17.2978 17.8259C17.3847 17.7389 17.4326 17.6228 17.4326 17.4991V13.1582C17.4326 13.0135 17.5497 12.8963 17.6945 12.8963C17.8391 12.8963 17.9564 13.0133 17.9564 13.1582L17.9562 16.6545V16.6951C17.9562 16.9495 18.1633 17.1566 18.418 17.1566C18.5415 17.1566 18.6573 17.1086 18.7449 17.0213C18.8318 16.9346 18.8797 16.8188 18.8797 16.695V13.158C18.8797 13.0133 18.9967 12.8961 19.1416 12.8961C19.2862 12.8961 19.4034 13.0132 19.4034 13.158L19.4031 15.8278C19.4031 16.0825 19.6102 16.2896 19.8646 16.2896C19.9884 16.2896 20.1042 16.2415 20.1911 16.1548C20.2783 16.0675 20.3261 15.9514 20.3261 15.8278L20.3262 10.4163C20.3262 8.61156 18.9904 7.14299 17.3483 7.14299L17.3483 7.14293Z"/>
</mask>
<path d="M19.8646 16.8131C19.697 16.8131 19.5414 16.767 19.4031 16.6929V16.6948C19.4031 16.9585 19.3006 17.2062 19.1147 17.3917C18.9287 17.5776 18.6812 17.6801 18.4179 17.6801C18.2478 17.6801 18.0902 17.6329 17.9505 17.5568C17.9364 17.798 17.8399 18.0235 17.6679 18.1957C17.4819 18.3817 17.2345 18.4842 16.9709 18.4842C16.4473 18.4842 16.022 18.0726 15.9914 17.5566C15.8294 17.6442 15.6462 17.6901 15.4573 17.678C14.9421 17.6442 14.5387 17.1991 14.5387 16.6645V12.2329L14.0341 13.1071C13.8419 13.4415 13.4821 13.6491 13.0948 13.6491C12.906 13.6491 12.7195 13.5996 12.5544 13.5049C12.3488 13.3857 12.2017 13.1943 12.1405 12.9654C12.079 12.7363 12.1108 12.4967 12.2297 12.2914C12.2299 12.2914 13.8808 9.43248 13.9815 9.25687C13.9935 9.23046 14.0276 9.15388 14.0566 9.08861C14.0843 9.02629 14.1081 8.96234 14.1309 8.89805C14.6287 7.49249 15.8615 6.61939 17.3483 6.61939C19.2789 6.61939 20.8497 8.3226 20.8497 10.4162L20.8498 15.8277C20.8498 16.091 20.7475 16.3385 20.5617 16.5246C20.3757 16.7106 20.1283 16.8131 19.8646 16.8131L19.8646 16.8131ZM17.3483 7.14293C16.0708 7.14293 15.0525 7.86452 14.6244 9.07314C14.597 9.14989 14.5684 9.22664 14.5351 9.30142C14.4386 9.51806 14.4386 9.51805 14.4113 9.54921L14.4077 9.54609C14.2729 9.80045 13.8725 10.494 12.683 12.5534C12.6341 12.6379 12.6212 12.7359 12.6461 12.8297C12.6714 12.9235 12.7319 13.0026 12.8157 13.0509C13.0758 13.2003 13.432 13.1039 13.5802 12.8456L14.5739 11.1253C14.6332 11.0228 14.7533 10.9725 14.8684 11.0036C14.9829 11.0343 15.0624 11.1381 15.0624 11.2565V16.6647C15.0624 16.9198 15.2549 17.1401 15.4916 17.1556C15.628 17.1629 15.7553 17.1171 15.8509 17.0217C15.9378 16.9347 15.9857 16.819 15.9857 16.6951V13.1582C15.9857 13.0135 16.1029 12.8963 16.2476 12.8963C16.3922 12.8963 16.5095 13.0134 16.5095 13.1582L16.5093 17.4991C16.5093 17.7536 16.7164 17.9607 16.9709 17.9607C17.0946 17.9607 17.2107 17.9129 17.2978 17.8259C17.3847 17.7389 17.4326 17.6228 17.4326 17.4991V13.1582C17.4326 13.0135 17.5497 12.8963 17.6945 12.8963C17.8391 12.8963 17.9564 13.0133 17.9564 13.1582L17.9562 16.6545V16.6951C17.9562 16.9495 18.1633 17.1566 18.418 17.1566C18.5415 17.1566 18.6573 17.1086 18.7449 17.0213C18.8318 16.9346 18.8797 16.8188 18.8797 16.695V13.158C18.8797 13.0133 18.9967 12.8961 19.1416 12.8961C19.2862 12.8961 19.4034 13.0132 19.4034 13.158L19.4031 15.8278C19.4031 16.0825 19.6102 16.2896 19.8646 16.2896C19.9884 16.2896 20.1042 16.2415 20.1911 16.1548C20.2783 16.0675 20.3261 15.9514 20.3261 15.8278L20.3262 10.4163C20.3262 8.61156 18.9904 7.14299 17.3483 7.14299L17.3483 7.14293Z" fill="#4CAF4F"/>
<path d="M19.8646 16.8131V15.885H23.1436L20.351 17.6035L19.8646 16.8131ZM19.4031 16.6929H18.475V15.1421L19.8417 15.8749L19.4031 16.6929ZM19.1147 17.3917L18.4584 16.7354L18.4593 16.7345L19.1147 17.3917ZM17.9505 17.5568L17.024 17.5026L17.1094 16.042L18.3943 16.7417L17.9505 17.5568ZM17.6679 18.1957L18.3245 18.8516L18.3242 18.852L17.6679 18.1957ZM15.9914 17.5566L15.5501 16.7402L16.8315 16.0476L16.9179 17.5016L15.9914 17.5566ZM15.4573 17.678L15.3978 18.6042L15.3965 18.6041L15.4573 17.678ZM14.5387 12.2329L13.7349 11.7689L15.4668 8.7685V12.2329H14.5387ZM14.0341 13.1071L13.2295 12.6446L13.2303 12.6431L14.0341 13.1071ZM12.5544 13.5049L12.093 14.3102L12.0889 14.3079L12.5544 13.5049ZM12.1405 12.9654L13.0368 12.7248L13.0371 12.7258L12.1405 12.9654ZM12.2297 12.2914L11.4265 11.8263L11.6946 11.3633H12.2297V12.2914ZM13.9815 9.25687L14.8267 9.64012L14.8085 9.68031L14.7866 9.71859L13.9815 9.25687ZM14.0566 9.08861L13.2086 8.71148L13.2086 8.71147L14.0566 9.08861ZM14.1309 8.89805L15.0057 9.20793L15.0056 9.20818L14.1309 8.89805ZM20.8497 10.4162L19.9216 10.4162V10.4162H20.8497ZM20.8498 15.8277L21.7779 15.8276V15.8277H20.8498ZM20.5617 16.5246L21.2185 17.1803L21.2179 17.1809L20.5617 16.5246ZM19.8646 16.8131V17.7412H16.5856L19.3782 16.0227L19.8646 16.8131ZM17.3483 7.14293V6.21484H18.5787L18.2407 7.3979L17.3483 7.14293ZM14.6244 9.07314L15.4992 9.38306L15.4985 9.38506L14.6244 9.07314ZM14.5351 9.30142L15.383 9.67887L15.3828 9.67937L14.5351 9.30142ZM14.4113 9.54921L15.1102 10.1599L14.5031 10.8547L13.8047 10.2516L14.4113 9.54921ZM14.4077 9.54609L13.5877 9.11149L14.133 8.08253L15.0143 8.84369L14.4077 9.54609ZM12.683 12.5534L13.4867 13.0176L13.4863 13.0182L12.683 12.5534ZM12.6461 12.8297L11.7499 13.071L11.7492 13.0681L12.6461 12.8297ZM12.8157 13.0509L12.3534 13.8557L12.3517 13.8547L12.8157 13.0509ZM13.5802 12.8456L12.7753 12.3836L12.7766 12.3814L13.5802 12.8456ZM14.5739 11.1253L13.7702 10.6611L13.7708 10.6602L14.5739 11.1253ZM14.8684 11.0036L14.6282 11.9001L14.6259 11.8995L14.8684 11.0036ZM15.4916 17.1556L15.4426 18.0825L15.4306 18.0817L15.4916 17.1556ZM15.8509 17.0217L16.5071 17.6779L16.5066 17.6785L15.8509 17.0217ZM16.5095 13.1582H17.4376V13.1582L16.5095 13.1582ZM16.5093 17.4991H15.5812V17.4991L16.5093 17.4991ZM17.2978 17.8259L17.9547 18.4816L17.9534 18.4828L17.2978 17.8259ZM17.9564 13.1582H18.8845V13.1582L17.9564 13.1582ZM17.9562 16.6545H17.0281V16.6544L17.9562 16.6545ZM18.7449 17.0213L19.4005 17.6782L19.3999 17.6788L18.7449 17.0213ZM19.4034 13.158H20.3315V13.1581L19.4034 13.158ZM19.4031 15.8278H18.475V15.8277L19.4031 15.8278ZM20.1911 16.1548L20.8474 16.811L20.8467 16.8117L20.1911 16.1548ZM20.3261 15.8278H19.398V15.8277L20.3261 15.8278ZM20.3262 10.4163H21.2543V10.4163L20.3262 10.4163ZM17.3483 7.14299V8.07108H16.1179L16.4559 6.88802L17.3483 7.14299ZM19.8646 17.7412C19.5229 17.7412 19.2178 17.6466 18.9646 17.5108L19.8417 15.8749C19.8537 15.8814 19.8613 15.8838 19.8643 15.8846C19.8669 15.8853 19.8666 15.885 19.8646 15.885V17.7412ZM20.3312 16.6929V16.6948H18.475V16.6929H20.3312ZM20.3312 16.6948C20.3312 17.2039 20.1315 17.6884 19.7701 18.0488L18.4593 16.7345C18.4659 16.7279 18.4692 16.7222 18.4711 16.7176C18.473 16.713 18.475 16.7058 18.475 16.6948H20.3312ZM19.7709 18.0479C19.4108 18.4081 18.9272 18.6082 18.4179 18.6082V16.752C18.4285 16.752 18.4355 16.7501 18.4403 16.7481C18.445 16.7462 18.4512 16.7427 18.4584 16.7354L19.7709 18.0479ZM18.4179 18.6082C18.0717 18.6082 17.7627 18.5114 17.5066 18.3719L18.3943 16.7417C18.4064 16.7483 18.4141 16.7508 18.4171 16.7516C18.4197 16.7524 18.4195 16.752 18.4179 16.752V18.6082ZM18.877 17.611C18.8503 18.0678 18.665 18.5108 18.3245 18.8516L17.0113 17.5398C17.0147 17.5364 17.0167 17.5333 17.0184 17.5295C17.0203 17.5253 17.0231 17.5168 17.024 17.5026L18.877 17.611ZM18.3242 18.852C17.9639 19.2122 17.4803 19.4123 16.9709 19.4123V17.5561C16.9817 17.5561 16.9888 17.5541 16.9935 17.5522C16.9983 17.5502 17.0044 17.5467 17.0116 17.5395L18.3242 18.852ZM16.9709 19.4123C15.9463 19.4123 15.1241 18.6081 15.0649 17.6117L16.9179 17.5016C16.9188 17.5174 16.9252 17.5312 16.9367 17.5421C16.9423 17.5475 16.9479 17.5509 16.9528 17.5529C16.9571 17.5546 16.9626 17.5561 16.9709 17.5561V19.4123ZM16.4327 18.3731C16.1329 18.5351 15.7775 18.6286 15.3978 18.6042L15.5168 16.7518C15.5168 16.7518 15.5188 16.752 15.5236 16.7509C15.5289 16.7496 15.538 16.7467 15.5501 16.7402L16.4327 18.3731ZM15.3965 18.6041C14.366 18.5365 13.6106 17.6602 13.6106 16.6645H15.4668C15.4668 16.6959 15.4782 16.72 15.4925 16.7358C15.5064 16.7512 15.5159 16.7518 15.518 16.7519L15.3965 18.6041ZM13.6106 16.6645V12.2329H15.4668V16.6645H13.6106ZM15.3425 12.6968L14.8379 13.5711L13.2303 12.6431L13.7349 11.7689L15.3425 12.6968ZM14.8387 13.5696C14.4801 14.1935 13.8126 14.5772 13.0948 14.5772V12.721C13.1517 12.721 13.2037 12.6894 13.2295 12.6446L14.8387 13.5696ZM13.0948 14.5772C12.7438 14.5772 12.3983 14.4852 12.093 14.3102L13.0158 12.6997C13.0408 12.714 13.0682 12.721 13.0948 12.721V14.5772ZM12.0889 14.3079C11.6722 14.0663 11.3689 13.6732 11.2438 13.205L13.0371 12.7258C13.0363 12.7227 13.034 12.7171 13.0295 12.7112C13.0251 12.7055 13.021 12.7026 13.0199 12.702L12.0889 14.3079ZM11.2441 13.206C11.1185 12.7381 11.1843 12.2447 11.4265 11.8263L13.0329 12.7564C13.0342 12.7541 13.0365 12.7489 13.0375 12.7414C13.0385 12.7338 13.0377 12.7278 13.0368 12.7248L11.2441 13.206ZM12.2297 11.3633C11.7744 11.4826 11.4337 11.8142 11.4311 11.8185C11.4303 11.8199 11.429 11.8221 11.4286 11.8227C11.4284 11.8231 11.428 11.8238 11.4279 11.824C11.4278 11.8242 11.4276 11.8245 11.4276 11.8245C11.4274 11.8248 11.4275 11.8247 11.4278 11.8241C11.4284 11.823 11.4295 11.8212 11.431 11.8185C11.4341 11.8132 11.4387 11.8053 11.4447 11.7949C11.4568 11.7739 11.4746 11.7432 11.4972 11.704C11.5426 11.6255 11.6074 11.5132 11.6856 11.3778C11.842 11.107 12.0515 10.7442 12.2641 10.3759C12.6902 9.63805 13.1269 8.8814 13.1764 8.79514L14.7866 9.71859C14.7353 9.80794 14.2963 10.5685 13.8716 11.304C13.6589 11.6724 13.4494 12.0353 13.293 12.3061C13.2148 12.4415 13.1499 12.5539 13.1045 12.6324C13.0819 12.6717 13.064 12.7025 13.0519 12.7236C13.0458 12.7341 13.0411 12.7423 13.0379 12.7478C13.0363 12.7506 13.0349 12.7528 13.034 12.7545C13.0335 12.7553 13.033 12.7562 13.0324 12.7572C13.0323 12.7575 13.0317 12.7585 13.0309 12.7597C13.0305 12.7605 13.0292 12.7627 13.0283 12.7642C13.0257 12.7685 12.685 13.1001 12.2297 13.2195V11.3633ZM13.1362 8.87361C13.1464 8.85108 13.1788 8.77843 13.2086 8.71148L14.9046 9.46574C14.8763 9.52933 14.8405 9.60985 14.8267 9.64012L13.1362 8.87361ZM13.2086 8.71147C13.2215 8.68247 13.2358 8.64541 13.2561 8.58792L15.0056 9.20818C14.9804 9.27927 14.9471 9.37012 14.9046 9.46575L13.2086 8.71147ZM13.256 8.58817C13.8846 6.81356 15.4668 5.6913 17.3483 5.6913V7.54748C16.2562 7.54748 15.3729 8.17142 15.0057 9.20793L13.256 8.58817ZM17.3483 5.6913C19.8608 5.6913 21.7777 7.88223 21.7777 10.4162H19.9216C19.9216 8.76297 18.697 7.54748 17.3483 7.54748V5.6913ZM21.7777 10.4161L21.7779 15.8276L19.9217 15.8277L19.9216 10.4162L21.7777 10.4161ZM21.7779 15.8277C21.7779 16.3366 21.5782 16.8199 21.2185 17.1803L19.9048 15.869C19.9121 15.8616 19.9157 15.8554 19.9177 15.8505C19.9198 15.8456 19.9217 15.8385 19.9217 15.8277H21.7779ZM21.2179 17.1809C20.8577 17.5412 20.374 17.7412 19.8646 17.7412V15.885C19.8755 15.885 19.8826 15.883 19.8873 15.8811C19.8921 15.8791 19.8982 15.8756 19.9054 15.8684L21.2179 17.1809ZM19.3782 16.0227L19.3782 16.0227L20.351 17.6035L20.351 17.6035L19.3782 16.0227ZM17.3483 8.07102C16.4659 8.07102 15.7968 8.54307 15.4992 9.38306L13.7495 8.76322C14.3083 7.18597 15.6757 6.21484 17.3483 6.21484V8.07102ZM15.4985 9.38506C15.4692 9.46716 15.4311 9.57084 15.383 9.67887L13.6873 8.92396C13.7058 8.88243 13.7248 8.83262 13.7502 8.76122L15.4985 9.38506ZM15.3828 9.67937C15.3403 9.77469 15.3047 9.85519 15.2774 9.90971C15.2605 9.94356 15.2332 9.99571 15.1934 10.0535C15.1532 10.112 15.1135 10.1562 15.1102 10.1599L13.7124 8.93856C13.7146 8.93606 13.7139 8.93687 13.7128 8.93815C13.7114 8.9398 13.7078 8.944 13.703 8.94977C13.6981 8.95575 13.692 8.96347 13.685 8.97264C13.678 8.9819 13.6708 8.99175 13.6637 9.00214C13.6492 9.0233 13.638 9.04183 13.63 9.05585C13.6226 9.06893 13.618 9.07799 13.617 9.08003C13.616 9.08214 13.6166 9.0809 13.6198 9.07414C13.6228 9.0676 13.6271 9.05818 13.6334 9.04446C13.6395 9.03087 13.6469 9.01445 13.656 8.99416C13.665 8.9739 13.6754 8.95068 13.6875 8.92347L15.3828 9.67937ZM13.8047 10.2516L13.8011 10.2485L15.0143 8.84369L15.018 8.84681L13.8047 10.2516ZM15.2278 9.9807C15.0825 10.2548 14.6678 10.9725 13.4867 13.0176L11.8793 12.0892C13.0771 10.0154 13.4633 9.34612 13.5877 9.11149L15.2278 9.9807ZM13.4863 13.0182C13.5606 12.8899 13.5813 12.7351 13.5431 12.5913L11.7492 13.0681C11.6611 12.7368 11.7077 12.3858 11.8797 12.0886L13.4863 13.0182ZM13.5423 12.5884C13.5041 12.4466 13.4102 12.3225 13.2797 12.2472L12.3517 13.8547C12.0535 13.6826 11.8386 13.4005 11.7499 13.071L13.5423 12.5884ZM13.278 12.2462C13.1723 12.1855 13.0696 12.1859 12.9986 12.205C12.9279 12.224 12.8373 12.2756 12.7753 12.3836L14.3852 13.3076C13.9807 14.0124 13.0563 14.2595 12.3534 13.8557L13.278 12.2462ZM12.7766 12.3814L13.7702 10.6611L15.3775 11.5895L14.3839 13.3098L12.7766 12.3814ZM13.7708 10.6602C14.0388 10.1973 14.586 9.96573 15.1109 10.1078L14.6259 11.8995C14.9205 11.9792 15.2276 11.8483 15.377 11.5905L13.7708 10.6602ZM15.1086 10.1072C15.6292 10.2467 15.9905 10.7185 15.9905 11.2565H14.1343C14.1343 11.5577 14.3365 11.822 14.6282 11.9001L15.1086 10.1072ZM15.9905 11.2565V16.6647H14.1343V11.2565H15.9905ZM15.9905 16.6647C15.9905 16.5589 15.9513 16.4628 15.887 16.3892C15.8228 16.3157 15.7095 16.2399 15.5525 16.2295L15.4306 18.0817C14.6493 18.0303 14.1343 17.3497 14.1343 16.6647H15.9905ZM15.5406 16.2288C15.4309 16.223 15.297 16.2632 15.1952 16.3648L16.5066 17.6785C16.2135 17.971 15.8251 18.1027 15.4426 18.0824L15.5406 16.2288ZM15.1946 16.3654C15.1065 16.4535 15.0576 16.5741 15.0576 16.6951H16.9138C16.9138 17.0638 16.769 17.416 16.5071 17.6779L15.1946 16.3654ZM15.0576 16.6951V13.1582H16.9138V16.6951H15.0576ZM15.0576 13.1582C15.0576 12.5009 15.5904 11.9682 16.2476 11.9682V13.8244C16.6155 13.8244 16.9138 13.5261 16.9138 13.1582H15.0576ZM16.2476 11.9682C16.9044 11.9682 17.4376 12.5004 17.4376 13.1582H15.5814C15.5814 13.5263 15.88 13.8244 16.2476 13.8244V11.9682ZM17.4376 13.1582L17.4374 17.4991L15.5812 17.4991L15.5814 13.1581L17.4376 13.1582ZM17.4374 17.4991C17.4374 17.241 17.229 17.0326 16.9709 17.0326V18.8888C16.2039 18.8888 15.5812 18.2662 15.5812 17.4991H17.4374ZM16.9709 17.0326C16.8501 17.0326 16.7301 17.0813 16.6422 17.169L17.9534 18.4828C17.6913 18.7444 17.339 18.8888 16.9709 18.8888V17.0326ZM16.6409 17.1703C16.5532 17.2582 16.5045 17.3783 16.5045 17.4991H18.3607C18.3607 17.8672 18.2162 18.2195 17.9547 18.4816L16.6409 17.1703ZM16.5045 17.4991V13.1582H18.3607V17.4991H16.5045ZM16.5045 13.1582C16.5045 12.5013 17.0367 11.9682 17.6945 11.9682V13.8243C18.0626 13.8243 18.3607 13.5257 18.3607 13.1582H16.5045ZM17.6945 11.9682C18.3513 11.9682 18.8845 12.5004 18.8845 13.1582H17.0283C17.0283 13.5263 17.3269 13.8243 17.6945 13.8243V11.9682ZM18.8845 13.1582L18.8843 16.6545L17.0281 16.6544L17.0283 13.1581L18.8845 13.1582ZM18.8843 16.6545V16.6951H17.0281V16.6545H18.8843ZM18.8843 16.6951C18.8843 16.4365 18.6755 16.2285 18.418 16.2285V18.0847C17.6512 18.0847 17.0281 17.4625 17.0281 16.6951H18.8843ZM18.418 16.2285C18.2947 16.2285 18.1753 16.2787 18.0898 16.3638L19.3999 17.6788C19.1393 17.9384 18.7883 18.0847 18.418 18.0847V16.2285ZM18.0892 16.3644C18.0004 16.453 17.9516 16.5741 17.9516 16.695H19.8077C19.8077 17.0634 19.6631 17.4161 19.4005 17.6782L18.0892 16.3644ZM17.9516 16.695V13.158H19.8077V16.695H17.9516ZM17.9516 13.158C17.9516 12.5011 18.4838 11.968 19.1416 11.968V13.8242C19.5097 13.8242 19.8077 13.5255 19.8077 13.158H17.9516ZM19.1416 11.968C19.7984 11.968 20.3315 12.5002 20.3315 13.158H18.4754C18.4754 13.5261 18.774 13.8242 19.1416 13.8242V11.968ZM20.3315 13.1581L20.3312 15.8279L18.475 15.8277L18.4754 13.1579L20.3315 13.1581ZM20.3312 15.8278C20.3312 15.5703 20.1233 15.3615 19.8646 15.3615V17.2177C19.0972 17.2177 18.475 16.5946 18.475 15.8278H20.3312ZM19.8646 15.3615C19.7428 15.3615 19.6227 15.4108 19.5355 15.4979L20.8467 16.8117C20.5856 17.0723 20.234 17.2177 19.8646 17.2177V15.3615ZM19.5348 15.4985C19.4465 15.5869 19.398 15.7075 19.398 15.8278H21.2541C21.2541 16.1953 21.1102 16.5482 20.8474 16.811L19.5348 15.4985ZM19.398 15.8277L19.3981 10.4163L21.2543 10.4163L21.2541 15.8278L19.398 15.8277ZM19.3981 10.4163C19.3981 9.03955 18.3971 8.07108 17.3483 8.07108V6.21489C19.5836 6.21489 21.2543 8.18357 21.2543 10.4163H19.3981ZM16.4559 6.88802L16.4559 6.88797L18.2407 7.3979L18.2406 7.39795L16.4559 6.88802Z" fill="#4CAF4F" mask="url(#path-1-inside-1_211_2338)"/>
<path d="M11.382 21.788C11.2577 21.8628 11.097 21.8224 11.0227 21.6983C10.9483 21.5743 10.9886 21.4134 11.1124 21.339M11.382 21.788L13.6446 18.7435C13.8632 18.6121 14.1515 18.6639 14.2863 18.8589M11.382 21.788L14.4149 19.9685H14.415L14.4154 19.9683M11.382 21.788L15.5794 20.3467C15.6853 20.283 15.7601 20.1823 15.79 20.0628M11.1124 21.339L14.1454 19.5195C14.2514 19.4559 14.3263 19.355 14.3562 19.2358M11.1124 21.339L11.1431 21.3902L11.2471 21.5635L11.2473 21.5639L11.2942 21.642L11.3511 21.7369L11.3512 21.7369L11.3513 21.7368L11.3515 21.7367M11.1124 21.339L11.1432 21.3901M14.3562 19.2358C14.389 19.1049 14.364 18.9711 14.2863 18.8589M14.3562 19.2358L14.431 19.2545L14.4239 19.1007C14.419 18.9947 14.388 18.9008 14.3356 18.8252L14.3354 18.825L14.2863 18.8589M14.3562 19.2358L14.431 19.2545L14.4384 19.4134L14.2866 19.5045H14.2864L14.1762 19.5706L14.1761 19.5706L14.1761 19.5706L11.1433 21.3901M14.2863 18.8589L14.3354 18.8249L12.0961 22.9774C12.1913 22.9202 12.2228 22.7963 12.165 22.7001C12.1078 22.6048 11.9835 22.5734 11.8878 22.6308L14.9207 20.8114C14.9904 20.7696 15.0634 20.738 15.138 20.7162L15.6084 20.395L15.6084 20.395L15.6343 20.3773C15.7447 20.302 15.8177 20.1976 15.8477 20.0774L15.8477 20.0772L15.79 20.0628M11.1433 21.3901C11.2387 21.333 11.363 21.364 11.4205 21.4594C11.4207 21.4596 11.4208 21.4598 11.4209 21.46C11.4781 21.5561 11.4466 21.6795 11.3515 21.7367M11.1433 21.3901C11.1432 21.3901 11.1432 21.3901 11.1432 21.3901M11.1433 21.3901L11.1432 21.3901M11.3515 21.7367L14.3842 19.9174L14.3842 19.9174L14.3844 19.9173C14.3845 19.9172 14.3846 19.9172 14.3847 19.9171L14.4149 19.9675L14.415 19.9678L14.4154 19.9683M11.3515 21.7367L11.2476 21.5638L11.2474 21.5634L11.2122 21.5049L11.1432 21.3901M14.4154 19.9683V19.8979C14.4739 19.8595 14.5275 19.8151 14.5753 19.7655L15.0745 19.505L15.0745 19.5049L15.1022 19.4905C15.1824 19.4486 15.2633 19.429 15.3402 19.429C15.3818 19.429 15.4246 19.4342 15.4683 19.445C15.4683 19.445 15.4684 19.445 15.4684 19.445C15.4685 19.4451 15.4687 19.4451 15.4688 19.4451L15.5665 19.0527M14.4154 19.9683L15.1045 19.5549C15.2101 19.4916 15.3337 19.4731 15.4539 19.5029C15.5735 19.5328 15.6743 19.6076 15.7378 19.7133C15.8013 19.8193 15.8198 19.9434 15.79 20.0628M15.5665 19.0527C15.5665 19.0527 15.5665 19.0527 15.5665 19.0527M15.5665 19.0527C15.8057 19.1125 16.009 19.2634 16.1357 19.4745L16.1868 19.4438M15.5665 19.0527L15.581 18.9948M15.5665 19.0527L15.4685 19.445C15.6042 19.479 15.7167 19.5624 15.7888 19.6825C15.7888 19.6826 15.7889 19.6826 15.7889 19.6827C15.7889 19.6827 15.7889 19.6827 15.7889 19.6827C15.8612 19.8034 15.8816 19.9419 15.8478 20.0771L15.8477 20.0772L15.79 20.0628M15.5665 19.0527C15.5664 19.0527 15.5664 19.0527 15.5663 19.0527L15.5658 19.0526C15.4941 19.0348 15.4214 19.0256 15.3491 19.025M15.5665 19.0527L15.581 18.9948M15.1289 21.1581L15.3905 21.0011L15.6602 21.1603C15.741 21.2079 15.8021 21.2676 15.8434 21.3366L15.8435 21.3368C15.8436 21.3369 15.8436 21.337 15.8436 21.337L15.7927 21.3677M15.1289 21.1581L15.9027 21.7317C15.9364 21.596 15.9159 21.4577 15.8437 21.3371L15.7927 21.3677M15.1289 21.1581L15.1596 21.2092M15.1289 21.1581L15.1288 21.1581L15.1596 21.2092M15.7927 21.3677C15.6617 21.1494 15.3775 21.0784 15.1596 21.2092M15.7927 21.3677C15.8564 21.4734 15.8749 21.5977 15.8451 21.7173L15.1596 21.2092M16.2349 21.0874C16.2371 21.091 16.2393 21.0946 16.2415 21.0982L16.2349 21.0874ZM16.2349 21.0874C16.2193 21.0996 16.2033 21.1115 16.1872 21.1231C16.1882 21.1249 16.1893 21.1267 16.1904 21.1285L16.2349 21.0874ZM16.1627 20.3796C16.1961 20.3155 16.2222 20.2471 16.2401 20.1753L16.1627 20.3796ZM16.1627 20.3796C16.1793 20.39 16.1959 20.4007 16.2122 20.4117C16.2494 20.3425 16.2784 20.2681 16.2979 20.1897C16.3617 19.9347 16.3222 19.6698 16.1868 19.4438M16.1627 20.3796L16.2402 20.1752C16.2999 19.9361 16.2623 19.6858 16.1359 19.4748L16.1357 19.4746C16.1357 19.4745 16.1357 19.4745 16.1357 19.4745L16.1868 19.4438M16.1868 19.4438C16.0514 19.2182 15.8363 19.0586 15.581 18.9948M15.581 18.9948L15.3439 18.965M15.3439 18.965C15.346 18.985 15.3478 19.005 15.3491 19.025M15.3439 18.965C15.3427 18.965 15.3414 18.965 15.3402 18.965C15.1833 18.965 15.0291 19.0052 14.8874 19.0791M15.3439 18.965L14.8874 19.0791M15.3491 19.025C15.3499 19.0359 15.3505 19.0467 15.351 19.0576L15.3402 19.0581L15.0521 19.0715M15.3491 19.025C15.3461 19.025 15.3432 19.025 15.3402 19.025C15.2423 19.0251 15.1452 19.0407 15.0521 19.0715M15.0521 19.0715L14.8874 19.0791M15.0521 19.0715C15.0049 19.0871 14.9587 19.1066 14.914 19.13C14.8977 19.1384 14.8817 19.1474 14.8659 19.1569L14.8657 19.157L14.8327 19.1768M14.8874 19.0791L14.623 19.3026L14.623 19.3026L14.8063 19.3485C14.8063 19.3485 14.8063 19.3486 14.8063 19.3486C14.8206 19.2915 14.8294 19.234 14.8327 19.1768M14.8874 19.0791L14.8166 18.9434M14.8874 19.0791C14.8801 18.921 14.8384 18.7653 14.7584 18.6264C14.7402 18.6345 14.7222 18.6429 14.7044 18.6517M14.8327 19.1768C14.8346 19.145 14.8348 19.1132 14.8334 19.0816C14.8313 19.0351 14.8257 18.9889 14.8166 18.9434M14.8327 19.1768L14.8166 18.9434M14.8166 18.9434L14.6727 18.6678C14.6832 18.6623 14.6937 18.6569 14.7044 18.6517M14.8166 18.9434L14.6678 18.5948C14.6807 18.6134 14.6929 18.6324 14.7044 18.6517M14.8166 18.9434C14.7962 18.8414 14.7584 18.7429 14.7044 18.6517M15.896 20.7606L15.9753 20.6261C15.941 20.6582 15.904 20.6879 15.8647 20.7147C15.8496 20.7251 15.8341 20.735 15.8183 20.7445L15.8181 20.7446L15.7846 20.7647L15.896 20.7606ZM8.48519 18.601L8.43243 18.5732C8.42273 18.5906 8.39858 18.6341 8.36292 18.6984C8.35408 18.7143 8.34455 18.7315 8.33435 18.7499C8.35253 18.7589 8.37087 18.7669 8.38924 18.7738C8.42062 18.7173 8.45259 18.6597 8.48519 18.601ZM12.6322 23.8716C12.6321 23.8716 12.6321 23.8716 12.632 23.8717L12.6322 23.8716Z" fill="#4CAF4F" stroke="#4CAF4F" stroke-width="0.928093"/>
<path d="M24.3339 19.437L24.3339 19.4371L24.3339 19.437ZM24.3339 19.437C24.2367 19.2629 24.2406 19.0484 24.3436 18.8767L24.3339 19.437ZM18.5923 19.0248C18.5198 19.0254 18.4469 19.0346 18.375 19.0526L18.5923 19.0248ZM18.5923 19.0248C18.5937 19.0048 18.5954 18.9849 18.5976 18.9649L18.5923 19.0248ZM23.9163 19.7625L23.8769 19.6915L23.9163 19.7625ZM22.7981 21.39C22.798 21.3899 22.7979 21.3899 22.7978 21.3898L22.798 21.3899L22.7981 21.39ZM21.3092 23.8719C21.3091 23.8719 21.309 23.8718 21.3089 23.8717L21.3092 23.8719ZM21.3088 23.8717L21.3089 23.8717L21.3088 23.8717Z" fill="#4CAF4F" stroke="#4CAF4F" stroke-width="0.928093"/>
</svg>
