<svg width="35" height="34" viewBox="0 0 35 34" fill="none" xmlns="http://www.w3.org/2000/svg">
                   <path d="M28.7674 29.6381V26.8538C28.7674 25.3769 28.1807 23.9606 27.1364 22.9163C26.0921 21.8719 24.6757 21.2853 23.1988 21.2853H21.8067C21.4375 21.2853 21.0834 21.1386 20.8223 20.8775C20.5612 20.6164 20.4146 20.2623 20.4146 19.8931V12.9324C20.4146 12.194 20.1212 11.4858 19.5991 10.9636C19.0769 10.4415 18.3687 10.1481 17.6303 10.1481C16.8918 10.1481 16.1836 10.4415 15.6615 10.9636C15.1393 11.4858 14.846 12.194 14.846 12.9324V25.4617L11.5049 21.0068C11.2455 20.661 10.9092 20.3804 10.5226 20.1871C10.136 19.9938 9.70969 19.8931 9.27744 19.8931H8.67325C7.46905 19.8931 6.49316 20.869 6.49316 22.0732C6.49316 22.4686 6.60036 22.857 6.80361 23.1953L10.6696 29.6381M17.6303 5.97173V4.57959V5.97173ZM25.9831 14.3246H27.3752H25.9831ZM7.8853 14.3246H9.27744H7.8853ZM11.1471 7.84137L10.1628 6.85713L11.1471 7.84137ZM24.1135 7.84137L25.0977 6.85713L24.1135 7.84137Z" fill="#4CAF4F"/>
                   <path d="M28.7674 29.6381V26.8538C28.7674 25.3769 28.1807 23.9606 27.1364 22.9163C26.0921 21.8719 24.6757 21.2853 23.1988 21.2853H21.8067C21.4375 21.2853 21.0834 21.1386 20.8223 20.8775C20.5612 20.6164 20.4146 20.2623 20.4146 19.8931V12.9324C20.4146 12.194 20.1212 11.4858 19.5991 10.9636C19.0769 10.4415 18.3687 10.1481 17.6303 10.1481V10.1481C16.8918 10.1481 16.1836 10.4415 15.6615 10.9636C15.1393 11.4858 14.846 12.194 14.846 12.9324V25.4617L11.5049 21.0068C11.2455 20.661 10.9092 20.3804 10.5226 20.1871C10.136 19.9938 9.70969 19.8931 9.27744 19.8931H8.67325C7.46905 19.8931 6.49316 20.869 6.49316 22.0732C6.49316 22.4686 6.60036 22.857 6.80361 23.1953L10.6696 29.6381M17.6303 5.97173V4.57959M25.9831 14.3246H27.3752M7.8853 14.3246H9.27744M11.1471 7.84137L10.1628 6.85713M24.1135 7.84137L25.0977 6.85713" stroke="#4CAF4F" stroke-width="1.39214" stroke-linecap="round" stroke-linejoin="round"/>
                   </svg>