<svg width="34" height="34" viewBox="0 0 34 34" fill="none" xmlns="http://www.w3.org/2000/svg">
                   <path d="M4.13275 11.8883V12.2364H4.48079H29.5393H29.8873V11.8883V10.3222C29.8873 9.5376 29.5756 8.78514 29.0209 8.23036C28.4661 7.67557 27.7136 7.36389 26.929 7.36389H7.09105C6.30646 7.36389 5.554 7.67557 4.99922 8.23036C4.44443 8.78514 4.13275 9.5376 4.13275 10.3222V11.8883ZM29.8873 13.9766V13.6285H29.5393H4.48079H4.13275V13.9766V23.8955C4.13275 24.6801 4.44443 25.4326 4.99922 25.9874C5.554 26.5422 6.30646 26.8538 7.09105 26.8538H26.929C27.7136 26.8538 28.4661 26.5422 29.0209 25.9874C29.5756 25.4326 29.8873 24.6801 29.8873 23.8955V13.9766ZM2.74061 10.3222C2.74061 9.16838 3.19896 8.06183 4.01483 7.24597C4.83069 6.4301 5.93724 5.97175 7.09105 5.97175H26.929C28.0828 5.97175 29.1894 6.4301 30.0052 7.24597C30.8211 8.06183 31.2795 9.16838 31.2795 10.3222V23.8955C31.2795 25.0493 30.8211 26.1559 30.0052 26.9718C29.1894 27.7876 28.0828 28.246 26.929 28.246H7.09105C5.93724 28.246 4.83069 27.7876 4.01483 26.9718C3.19896 26.1559 2.74061 25.0493 2.74061 23.8955V10.3222ZM22.2306 20.5892H25.3629C25.5475 20.5892 25.7245 20.6625 25.8551 20.7931C25.9856 20.9236 26.0589 21.1007 26.0589 21.2853C26.0589 21.4699 25.9856 21.6469 25.8551 21.7775C25.7245 21.908 25.5475 21.9814 25.3629 21.9814H22.2306C22.0459 21.9814 21.8689 21.908 21.7384 21.7775C21.6078 21.6469 21.5345 21.4699 21.5345 21.2853C21.5345 21.1007 21.6078 20.9236 21.7384 20.7931C21.8689 20.6625 22.0459 20.5892 22.2306 20.5892Z" fill="#4CAF4F" stroke="#4CAF4F" stroke-width="0.696069"/>
                   </svg>